<svg xmlns="http://www.w3.org/2000/svg" viewBox="0 0 200 150"><rect width="200" height="150" fill="#faf8f4"/><circle cx="100" cy="56" r="9" fill="none" stroke="#2c2825" stroke-width="3" /><path d="M86 100 v-18 a14 14 0 0 1 28 0 v18" fill="none" stroke="#2c2825" stroke-width="3" stroke-linecap="round" stroke-linejoin="round" /><path d="M82 40 L88 26 L96 38 L100 22 L104 38 L112 26 L118 40 Z" fill="#e8c969" stroke="#b45309" stroke-width="3" stroke-linecap="round" stroke-linejoin="round" /><circle cx="56" cy="94.1" r="4.05" fill="none" stroke="#2c2825" stroke-width="3" /><path d="M49.7 113.9 v-18 a6.3 6.3 0 0 1 28 0 v18" fill="none" stroke="#2c2825" stroke-width="3" stroke-linecap="round" stroke-linejoin="round" /><circle cx="144" cy="94.1" r="4.05" fill="none" stroke="#2c2825" stroke-width="3" /><path d="M137.7 113.9 v-18 a6.3 6.3 0 0 1 28 0 v18" fill="none" stroke="#2c2825" stroke-width="3" stroke-linecap="round" stroke-linejoin="round" /><line x1="72" y1="104" x2="86" y2="96" stroke="#c9c2b6" stroke-width="2.5" stroke-linecap="round" /><path d="M80.33996316852206 104.24402711460323 L86 96 L76.02389640220689 96.69091027355167" fill="none" stroke="#c9c2b6" stroke-width="2.5" stroke-linecap="round" stroke-linejoin="round" /><line x1="128" y1="104" x2="114" y2="96" stroke="#c9c2b6" stroke-width="2.5" stroke-linecap="round" /><path d="M123.97610359779311 96.69091027355165 L114 96 L119.66003683147794 104.24402711460323" fill="none" stroke="#c9c2b6" stroke-width="2.5" stroke-linecap="round" stroke-linejoin="round" /></svg>