<svg xmlns="http://www.w3.org/2000/svg" viewBox="0 0 200 150"><rect width="200" height="150" fill="#faf8f4"/><g><circle cx="82" cy="76" r="20" fill="none" stroke="#2c2825" stroke-width="3" /><line x1="102" y1="76" x2="109" y2="76" stroke="#2c2825" stroke-width="4" stroke-linecap="round" /><line x1="96.14213562373095" y1="90.14213562373095" x2="101.09188309203678" y2="95.09188309203678" stroke="#2c2825" stroke-width="4" stroke-linecap="round" /><line x1="82" y1="96" x2="82" y2="103" stroke="#2c2825" stroke-width="4" stroke-linecap="round" /><line x1="67.85786437626905" y1="90.14213562373095" x2="62.90811690796322" y2="95.09188309203678" stroke="#2c2825" stroke-width="4" stroke-linecap="round" /><line x1="62" y1="76" x2="55" y2="76" stroke="#2c2825" stroke-width="4" stroke-linecap="round" /><line x1="67.85786437626905" y1="61.85786437626905" x2="62.90811690796321" y2="56.90811690796322" stroke="#2c2825" stroke-width="4" stroke-linecap="round" /><line x1="82" y1="56" x2="82" y2="49" stroke="#2c2825" stroke-width="4" stroke-linecap="round" /><line x1="96.14213562373095" y1="61.85786437626905" x2="101.09188309203678" y2="56.90811690796321" stroke="#2c2825" stroke-width="4" stroke-linecap="round" /><circle cx="82" cy="76" r="6" fill="none" stroke="#2c2825" stroke-width="3" /><animateTransform attributeName="transform" type="rotate" from="0 82 76" to="360 82 76" dur="3s" repeatCount="indefinite"/></g><g><circle cx="128" cy="60" r="13" fill="none" stroke="#2c2825" stroke-width="3" /><line x1="141" y1="60" x2="148" y2="60" stroke="#2c2825" stroke-width="4" stroke-linecap="round" /><line x1="137.1923881554251" y1="69.19238815542512" x2="142.14213562373095" y2="74.14213562373095" stroke="#2c2825" stroke-width="4" stroke-linecap="round" /><line x1="128" y1="73" x2="128" y2="80" stroke="#2c2825" stroke-width="4" stroke-linecap="round" /><line x1="118.80761184457488" y1="69.19238815542512" x2="113.85786437626905" y2="74.14213562373095" stroke="#2c2825" stroke-width="4" stroke-linecap="round" /><line x1="115" y1="60" x2="108" y2="60" stroke="#2c2825" stroke-width="4" stroke-linecap="round" /><line x1="118.80761184457488" y1="50.80761184457488" x2="113.85786437626905" y2="45.85786437626905" stroke="#2c2825" stroke-width="4" stroke-linecap="round" /><line x1="128" y1="47" x2="128" y2="40" stroke="#2c2825" stroke-width="4" stroke-linecap="round" /><line x1="137.1923881554251" y1="50.80761184457488" x2="142.14213562373095" y2="45.85786437626905" stroke="#2c2825" stroke-width="4" stroke-linecap="round" /><circle cx="128" cy="60" r="6" fill="none" stroke="#2c2825" stroke-width="3" /><animateTransform attributeName="transform" type="rotate" from="0 128 60" to="360 128 60" dur="2s" repeatCount="indefinite"/></g><line x1="118" y1="104" x2="146" y2="104" stroke="#b45309" stroke-width="3" stroke-linecap="round" /><path d="M136.99552897647322 108.3496553411123 L146 104 L136.99552897647322 99.6503446588877" fill="none" stroke="#b45309" stroke-width="3" stroke-linecap="round" stroke-linejoin="round" /></svg>