<svg xmlns="http://www.w3.org/2000/svg" viewBox="0 0 200 150"><rect width="200" height="150" fill="#faf8f4"/><ellipse cx="100" cy="56" rx="9" ry="17" fill="#f3b6c8" stroke="#be123c" stroke-width="2" transform="rotate(0 100 68)"/><ellipse cx="100" cy="56" rx="9" ry="17" fill="#f3b6c8" stroke="#be123c" stroke-width="2" transform="rotate(72 100 68)"/><ellipse cx="100" cy="56" rx="9" ry="17" fill="#f3b6c8" stroke="#be123c" stroke-width="2" transform="rotate(144 100 68)"/><ellipse cx="100" cy="56" rx="9" ry="17" fill="#f3b6c8" stroke="#be123c" stroke-width="2" transform="rotate(216 100 68)"/><ellipse cx="100" cy="56" rx="9" ry="17" fill="#f3b6c8" stroke="#be123c" stroke-width="2" transform="rotate(288 100 68)"/><circle cx="100" cy="68" r="8" fill="#f2c233" stroke="#b45309" stroke-width="3" /><path d="M100 88 V120 M100 102 Q84 100 80 88" fill="none" stroke="#15803d" stroke-width="3.5" stroke-linecap="round" stroke-linejoin="round" /><g ><path transform="translate(60,44) scale(0.5)" d="M0 -12 L3.5 -3.5 L12 -3 L5.5 3 L7.5 12 L0 7 L-7.5 12 L-5.5 3 L-12 -3 L-3.5 -3.5 Z" fill="#b45309"/><animate attributeName="opacity" values="0.3;1;0.3" dur="1.3s" repeatCount="indefinite"/></g><g ><path transform="translate(146,50) scale(0.45)" d="M0 -12 L3.5 -3.5 L12 -3 L5.5 3 L7.5 12 L0 7 L-7.5 12 L-5.5 3 L-12 -3 L-3.5 -3.5 Z" fill="#b45309"/><animate attributeName="opacity" values="1;0.3;1" dur="1.3s" repeatCount="indefinite"/></g></svg>