<svg xmlns="http://www.w3.org/2000/svg" viewBox="0 0 200 150"><rect width="200" height="150" fill="#faf8f4"/><path d="M86 50 Q86 36 100 36 Q114 36 114 50 V64 Q114 74 100 74 Q86 74 86 64 Z" fill="#fff" stroke="#2c2825" stroke-width="3" stroke-linecap="round" stroke-linejoin="round" /><path d="M100 74 V88 M100 88 Q76 88 70 108 M100 88 Q124 88 130 108" fill="none" stroke="#2c2825" stroke-width="3.5" stroke-linecap="round" stroke-linejoin="round" /><g ><path d="M64 44 q-10 6 0 14 M58 38 q-16 10 0 26" fill="none" stroke="#1d6fa5" stroke-width="2.5" stroke-linecap="round" stroke-linejoin="round" /><animate attributeName="opacity" values="0;1;0" dur="2.4s" repeatCount="indefinite"/></g><g ><path d="M136 44 q10 6 0 14 M142 38 q16 10 0 26" fill="none" stroke="#1d6fa5" stroke-width="2.5" stroke-linecap="round" stroke-linejoin="round" /><animate attributeName="opacity" values="1;0;1" dur="2.4s" repeatCount="indefinite"/></g></svg>