<svg xmlns="http://www.w3.org/2000/svg" viewBox="0 0 200 150"><rect width="200" height="150" fill="#faf8f4"/><rect x="64" y="44" width="72" height="74" rx="6" fill="#fff" stroke="#2c2825" stroke-width="3" /><rect x="72" y="58" width="12" height="10" rx="1" fill="#cfe0ee" stroke="#2c2825" stroke-width="1.8" /><rect x="94" y="58" width="12" height="10" rx="1" fill="#cfe0ee" stroke="#2c2825" stroke-width="1.8" /><rect x="116" y="58" width="12" height="10" rx="1" fill="#cfe0ee" stroke="#2c2825" stroke-width="1.8" /><rect x="72" y="76" width="12" height="10" rx="1" fill="#cfe0ee" stroke="#2c2825" stroke-width="1.8" /><rect x="94" y="76" width="12" height="10" rx="1" fill="#cfe0ee" stroke="#2c2825" stroke-width="1.8" /><rect x="116" y="76" width="12" height="10" rx="1" fill="#cfe0ee" stroke="#2c2825" stroke-width="1.8" /><rect x="72" y="94" width="12" height="10" rx="1" fill="#cfe0ee" stroke="#2c2825" stroke-width="1.8" /><rect x="94" y="94" width="12" height="10" rx="1" fill="#cfe0ee" stroke="#2c2825" stroke-width="1.8" /><rect x="116" y="94" width="12" height="10" rx="1" fill="#cfe0ee" stroke="#2c2825" stroke-width="1.8" /><rect x="92" y="102" width="16" height="16" rx="1" fill="#ece6da" stroke="#2c2825" stroke-width="2" /><line x1="48" y1="118" x2="152" y2="118" stroke="#2c2825" stroke-width="3.5" stroke-linecap="round" /></svg>