<svg xmlns="http://www.w3.org/2000/svg" viewBox="0 0 200 150"><rect width="200" height="150" fill="#faf8f4"/><path d="M36 110 Q60 84 84 96 Q110 70 134 88 Q150 78 164 92 V110 Z" fill="#dcedc8" stroke="#15803d" stroke-width="3" stroke-linecap="round" stroke-linejoin="round" /><circle cx="58" cy="44" r="9" fill="#b45309" /><line x1="72" y1="44" x2="79" y2="44" stroke="#b45309" stroke-width="3" stroke-linecap="round" /><line x1="67.89949493661166" y1="53.89949493661166" x2="72.8492424049175" y2="58.8492424049175" stroke="#b45309" stroke-width="3" stroke-linecap="round" /><line x1="58" y1="58" x2="58" y2="65" stroke="#b45309" stroke-width="3" stroke-linecap="round" /><line x1="48.10050506338834" y1="53.89949493661167" x2="43.1507575950825" y2="58.8492424049175" stroke="#b45309" stroke-width="3" stroke-linecap="round" /><line x1="44" y1="44" x2="37" y2="44" stroke="#b45309" stroke-width="3" stroke-linecap="round" /><line x1="48.10050506338833" y1="34.10050506338834" x2="43.150757595082496" y2="29.150757595082503" stroke="#b45309" stroke-width="3" stroke-linecap="round" /><line x1="58" y1="30" x2="57.99999999999999" y2="23" stroke="#b45309" stroke-width="3" stroke-linecap="round" /><line x1="67.89949493661166" y1="34.10050506338833" x2="72.84924240491749" y2="29.1507575950825" stroke="#b45309" stroke-width="3" stroke-linecap="round" /><path d="M120 56 V36 H140 L134 42 L140 48 H124" fill="none" stroke="#be123c" stroke-width="3" stroke-linecap="round" stroke-linejoin="round" /></svg>