<svg xmlns="http://www.w3.org/2000/svg" viewBox="0 0 200 150"><rect width="200" height="150" fill="#faf8f4"/><rect x="44" y="36" width="112" height="80" rx="10" fill="#221f1c" /><path d="M114 52 a18 18 0 1 0 8 32 a22 22 0 0 1 -8 -32" fill="#f4e9c8" stroke="none" stroke-width="3" stroke-linecap="round" stroke-linejoin="round" /><path transform="translate(80,60) scale(0.35)" d="M0 -12 L3.5 -3.5 L12 -3 L5.5 3 L7.5 12 L0 7 L-7.5 12 L-5.5 3 L-12 -3 L-3.5 -3.5 Z" fill="#f4e9c8"/><path transform="translate(96,84) scale(0.28)" d="M0 -12 L3.5 -3.5 L12 -3 L5.5 3 L7.5 12 L0 7 L-7.5 12 L-5.5 3 L-12 -3 L-3.5 -3.5 Z" fill="#f4e9c8"/></svg>