<svg xmlns="http://www.w3.org/2000/svg" viewBox="0 0 200 150"><rect width="200" height="150" fill="#faf8f4"/><path d="M36 36 h56 a8 8 0 0 1 8 8 v20 a8 8 0 0 1 -8 8 h-30 l12 12 v-12 h-10 a8 8 0 0 1 -8 -8 v-20 a8 8 0 0 1 8 -8 Z" fill="#fff" stroke="#2c2825" stroke-width="3" stroke-linecap="round" stroke-linejoin="round" /><path d="M112 64 h56 a8 8 0 0 1 8 8 v20 a8 8 0 0 1 -8 8 h38 l-12 12 v-12 h-8 a8 8 0 0 1 -8 -8 v-20 a8 8 0 0 1 8 -8 Z" fill="#fff" stroke="#2c2825" stroke-width="3" stroke-linecap="round" stroke-linejoin="round" /><circle cx="54" cy="54" r="3" fill="#c9c2b6" /><circle cx="66" cy="54" r="3" fill="#c9c2b6" /><circle cx="78" cy="54" r="3" fill="#c9c2b6" /><circle cx="130" cy="82" r="3" fill="#c9c2b6" /><circle cx="142" cy="82" r="3" fill="#c9c2b6" /><circle cx="154" cy="82" r="3" fill="#c9c2b6" /></svg>