<svg xmlns="http://www.w3.org/2000/svg" viewBox="0 0 200 150"><rect width="200" height="150" fill="#faf8f4"/><circle cx="100" cy="74" r="24" fill="#dcedc8" stroke="#15803d" stroke-width="3" /><line x1="124" y1="74" x2="136" y2="74" stroke="#15803d" stroke-width="3" stroke-linecap="round" /><circle cx="138" cy="74" r="3" fill="#15803d" /><line x1="116.97056274847714" y1="90.97056274847714" x2="125.45584412271572" y2="99.45584412271572" stroke="#15803d" stroke-width="3" stroke-linecap="round" /><circle cx="126.87005768508881" cy="100.8700576850888" r="3" fill="#15803d" /><line x1="100" y1="98" x2="100" y2="110" stroke="#15803d" stroke-width="3" stroke-linecap="round" /><circle cx="100" cy="112" r="3" fill="#15803d" /><line x1="83.02943725152286" y1="90.97056274847714" x2="74.54415587728428" y2="99.45584412271572" stroke="#15803d" stroke-width="3" stroke-linecap="round" /><circle cx="73.1299423149112" cy="100.87005768508881" r="3" fill="#15803d" /><line x1="76" y1="74" x2="64" y2="74" stroke="#15803d" stroke-width="3" stroke-linecap="round" /><circle cx="62" cy="74" r="3" fill="#15803d" /><line x1="83.02943725152286" y1="57.029437251522864" x2="74.54415587728428" y2="48.54415587728429" stroke="#15803d" stroke-width="3" stroke-linecap="round" /><circle cx="73.12994231491119" cy="47.1299423149112" r="3" fill="#15803d" /><line x1="100" y1="50" x2="100" y2="38" stroke="#15803d" stroke-width="3" stroke-linecap="round" /><circle cx="100" cy="36" r="3" fill="#15803d" /><line x1="116.97056274847714" y1="57.02943725152286" x2="125.4558441227157" y2="48.54415587728428" stroke="#15803d" stroke-width="3" stroke-linecap="round" /><circle cx="126.8700576850888" cy="47.12994231491119" r="3" fill="#15803d" /><circle cx="92" cy="68" r="4" fill="#15803d" /><circle cx="108" cy="80" r="5" fill="#15803d" /></svg>