<svg xmlns="http://www.w3.org/2000/svg" viewBox="0 0 200 150"><rect width="200" height="150" fill="#faf8f4"/><g ><line x1="100" y1="30" x2="100" y2="100" stroke="#2c2825" stroke-width="3" stroke-linecap="round" /><line x1="70" y1="100" x2="130" y2="100" stroke="#2c2825" stroke-width="4" stroke-linecap="round" /><line x1="55" y1="36" x2="145" y2="48" stroke="#2c2825" stroke-width="3.5" stroke-linecap="round" /><path d="M40 50 Q55 64 70 50" fill="none" stroke="#b45309" stroke-width="3" stroke-linecap="round" stroke-linejoin="round" /><line x1="55" y1="36" x2="40" y2="50" stroke="#2c2825" stroke-width="2" stroke-linecap="round" /><line x1="55" y1="36" x2="70" y2="50" stroke="#2c2825" stroke-width="2" stroke-linecap="round" /><path d="M130 62 Q145 76 160 62" fill="none" stroke="#b45309" stroke-width="3" stroke-linecap="round" stroke-linejoin="round" /><line x1="145" y1="48" x2="130" y2="62" stroke="#2c2825" stroke-width="2" stroke-linecap="round" /><line x1="145" y1="48" x2="160" y2="62" stroke="#2c2825" stroke-width="2" stroke-linecap="round" /></g><g transform="translate(168,50) scale(0.7)"><path d="M-8 -10 Q-8 -20 0 -20 Q9 -20 9 -11 Q9 -4 0 -2 L0 4" fill="none" stroke="#b45309" stroke-width="4" stroke-linecap="round" stroke-linejoin="round" /><circle cx="0" cy="12" r="2.8" fill="#b45309" /></g></svg>