<svg xmlns="http://www.w3.org/2000/svg" viewBox="0 0 200 150"><rect width="200" height="150" fill="#faf8f4"/><circle cx="60" cy="51.1" r="8.549999999999999" fill="none" stroke="#2c2825" stroke-width="3" /><path d="M46.7 92.9 v-18 a13.299999999999999 13.299999999999999 0 0 1 28 0 v18" fill="none" stroke="#2c2825" stroke-width="3" stroke-linecap="round" stroke-linejoin="round" /><circle cx="100" cy="51.1" r="8.549999999999999" fill="none" stroke="#7e22ce" stroke-width="3" /><path d="M86.7 92.9 v-18 a13.299999999999999 13.299999999999999 0 0 1 28 0 v18" fill="none" stroke="#7e22ce" stroke-width="3" stroke-linecap="round" stroke-linejoin="round" /><circle cx="138" cy="68.8" r="5.3999999999999995" fill="none" stroke="#b45309" stroke-width="3" /><path d="M129.6 95.2 v-18 a8.4 8.4 0 0 1 28 0 v18" fill="none" stroke="#b45309" stroke-width="3" stroke-linecap="round" stroke-linejoin="round" /><path transform="translate(100,26) scale(0.55)" d="M0 6 C-2 -2 -14 -2 -14 7 C-14 15 -4 21 0 25 C4 21 14 15 14 7 C14 -2 2 -2 0 6 Z" fill="#be123c"/></svg>