<svg xmlns="http://www.w3.org/2000/svg" viewBox="0 0 200 150"><rect width="200" height="150" fill="#faf8f4"/><path d="M40 100 H160 V116 H40 Z" fill="#8a6a4a" stroke="#b45309" stroke-width="2.5" stroke-linecap="round" stroke-linejoin="round" /><g ><path d="M64 100 V72 M64 84 q-12 -2 -14 -14 q12 0 14 10 M64 78 q12 -4 14 -16 q-12 0 -14 12" fill="none" stroke="#15803d" stroke-width="3" stroke-linecap="round" stroke-linejoin="round" /><animate attributeName="opacity" values="0.5;1;0.5" dur="1.6s" repeatCount="indefinite"/></g><g ><path d="M100 100 V72 M100 84 q-12 -2 -14 -14 q12 0 14 10 M100 78 q12 -4 14 -16 q-12 0 -14 12" fill="none" stroke="#15803d" stroke-width="3" stroke-linecap="round" stroke-linejoin="round" /><animate attributeName="opacity" values="0.5;1;0.5" dur="1.9000000000000001s" repeatCount="indefinite"/></g><g ><path d="M136 100 V72 M136 84 q-12 -2 -14 -14 q12 0 14 10 M136 78 q12 -4 14 -16 q-12 0 -14 12" fill="none" stroke="#15803d" stroke-width="3" stroke-linecap="round" stroke-linejoin="round" /><animate attributeName="opacity" values="0.5;1;0.5" dur="2.2s" repeatCount="indefinite"/></g><circle cx="152" cy="40" r="9" fill="#b45309" /><line x1="166" y1="40" x2="173" y2="40" stroke="#b45309" stroke-width="3" stroke-linecap="round" /><line x1="161.89949493661166" y1="49.89949493661166" x2="166.8492424049175" y2="54.8492424049175" stroke="#b45309" stroke-width="3" stroke-linecap="round" /><line x1="152" y1="54" x2="152" y2="61" stroke="#b45309" stroke-width="3" stroke-linecap="round" /><line x1="142.10050506338834" y1="49.89949493661167" x2="137.1507575950825" y2="54.8492424049175" stroke="#b45309" stroke-width="3" stroke-linecap="round" /><line x1="138" y1="40" x2="131" y2="40" stroke="#b45309" stroke-width="3" stroke-linecap="round" /><line x1="142.10050506338834" y1="30.100505063388336" x2="137.1507575950825" y2="25.150757595082503" stroke="#b45309" stroke-width="3" stroke-linecap="round" /><line x1="152" y1="26" x2="152" y2="19" stroke="#b45309" stroke-width="3" stroke-linecap="round" /><line x1="161.89949493661166" y1="30.100505063388333" x2="166.8492424049175" y2="25.1507575950825" stroke="#b45309" stroke-width="3" stroke-linecap="round" /></svg>