<svg xmlns="http://www.w3.org/2000/svg" viewBox="0 0 200 150"><rect width="200" height="150" fill="#faf8f4"/><path d="M36 110 H164" fill="none" stroke="#15803d" stroke-width="3" stroke-linecap="round" stroke-linejoin="round" /><path d="M44 110 q2 -12 4 -16 M48 110 q-1 -10 4 -14" fill="none" stroke="#15803d" stroke-width="2.5" stroke-linecap="round" stroke-linejoin="round" /><path d="M60 110 q2 -12 4 -16 M64 110 q-1 -10 4 -14" fill="none" stroke="#15803d" stroke-width="2.5" stroke-linecap="round" stroke-linejoin="round" /><path d="M76 110 q2 -12 4 -16 M80 110 q-1 -10 4 -14" fill="none" stroke="#15803d" stroke-width="2.5" stroke-linecap="round" stroke-linejoin="round" /><path d="M92 110 q2 -12 4 -16 M96 110 q-1 -10 4 -14" fill="none" stroke="#15803d" stroke-width="2.5" stroke-linecap="round" stroke-linejoin="round" /><path d="M108 110 q2 -12 4 -16 M112 110 q-1 -10 4 -14" fill="none" stroke="#15803d" stroke-width="2.5" stroke-linecap="round" stroke-linejoin="round" /><path d="M124 110 q2 -12 4 -16 M128 110 q-1 -10 4 -14" fill="none" stroke="#15803d" stroke-width="2.5" stroke-linecap="round" stroke-linejoin="round" /><path d="M140 110 q2 -12 4 -16 M144 110 q-1 -10 4 -14" fill="none" stroke="#15803d" stroke-width="2.5" stroke-linecap="round" stroke-linejoin="round" /><path d="M156 110 q2 -12 4 -16 M160 110 q-1 -10 4 -14" fill="none" stroke="#15803d" stroke-width="2.5" stroke-linecap="round" stroke-linejoin="round" /><line x1="36" y1="86" x2="164" y2="86" stroke="#9a6b3f" stroke-width="2.5" stroke-linecap="round" /><line x1="52" y1="78" x2="52" y2="94" stroke="#9a6b3f" stroke-width="2.5" stroke-linecap="round" /><line x1="84" y1="78" x2="84" y2="94" stroke="#9a6b3f" stroke-width="2.5" stroke-linecap="round" /><line x1="116" y1="78" x2="116" y2="94" stroke="#9a6b3f" stroke-width="2.5" stroke-linecap="round" /><line x1="148" y1="78" x2="148" y2="94" stroke="#9a6b3f" stroke-width="2.5" stroke-linecap="round" /><circle cx="150" cy="40" r="9" fill="#b45309" /><line x1="164" y1="40" x2="171" y2="40" stroke="#b45309" stroke-width="3" stroke-linecap="round" /><line x1="159.89949493661166" y1="49.89949493661166" x2="164.8492424049175" y2="54.8492424049175" stroke="#b45309" stroke-width="3" stroke-linecap="round" /><line x1="150" y1="54" x2="150" y2="61" stroke="#b45309" stroke-width="3" stroke-linecap="round" /><line x1="140.10050506338834" y1="49.89949493661167" x2="135.1507575950825" y2="54.8492424049175" stroke="#b45309" stroke-width="3" stroke-linecap="round" /><line x1="136" y1="40" x2="129" y2="40" stroke="#b45309" stroke-width="3" stroke-linecap="round" /><line x1="140.10050506338834" y1="30.100505063388336" x2="135.1507575950825" y2="25.150757595082503" stroke="#b45309" stroke-width="3" stroke-linecap="round" /><line x1="150" y1="26" x2="150" y2="19" stroke="#b45309" stroke-width="3" stroke-linecap="round" /><line x1="159.89949493661166" y1="30.100505063388333" x2="164.8492424049175" y2="25.1507575950825" stroke="#b45309" stroke-width="3" stroke-linecap="round" /></svg>