<svg xmlns="http://www.w3.org/2000/svg" viewBox="0 0 200 150"><rect width="200" height="150" fill="#faf8f4"/><path d="M100 122 V52" fill="none" stroke="#b45309" stroke-width="3" stroke-linecap="round" stroke-linejoin="round" /><path d="M100 56 q-14 -4 -18 -16 q14 0 18 12 M100 56 q14 -4 18 -16 q-14 0 -18 12" fill="#e8c969" stroke="#b45309" stroke-width="2" stroke-linecap="round" stroke-linejoin="round" /><path d="M100 70 q-14 -4 -18 -16 q14 0 18 12 M100 70 q14 -4 18 -16 q-14 0 -18 12" fill="#e8c969" stroke="#b45309" stroke-width="2" stroke-linecap="round" stroke-linejoin="round" /><path d="M100 84 q-14 -4 -18 -16 q14 0 18 12 M100 84 q14 -4 18 -16 q-14 0 -18 12" fill="#e8c969" stroke="#b45309" stroke-width="2" stroke-linecap="round" stroke-linejoin="round" /><path d="M100 98 q-14 -4 -18 -16 q14 0 18 12 M100 98 q14 -4 18 -16 q-14 0 -18 12" fill="#e8c969" stroke="#b45309" stroke-width="2" stroke-linecap="round" stroke-linejoin="round" /><path d="M100 52 q-4 -12 0 -16 q4 4 0 16" fill="#e8c969" stroke="#b45309" stroke-width="3" stroke-linecap="round" stroke-linejoin="round" /></svg>