<svg xmlns="http://www.w3.org/2000/svg" viewBox="0 0 200 150"><rect width="200" height="150" fill="#faf8f4"/><path d="M48 116 q-4 -22 -8 -38 M54 116 q2 -18 8 -30" fill="none" stroke="#15803d" stroke-width="3" stroke-linecap="round" stroke-linejoin="round" /><path d="M64 116 q-4 -22 8 -38 M70 116 q2 -18 -6 -30" fill="none" stroke="#15803d" stroke-width="3" stroke-linecap="round" stroke-linejoin="round" /><path d="M80 116 q-4 -22 -8 -38 M86 116 q2 -18 8 -30" fill="none" stroke="#15803d" stroke-width="3" stroke-linecap="round" stroke-linejoin="round" /><path d="M96 116 q-4 -22 8 -38 M102 116 q2 -18 -6 -30" fill="none" stroke="#15803d" stroke-width="3" stroke-linecap="round" stroke-linejoin="round" /><path d="M112 116 q-4 -22 -8 -38 M118 116 q2 -18 8 -30" fill="none" stroke="#15803d" stroke-width="3" stroke-linecap="round" stroke-linejoin="round" /><path d="M128 116 q-4 -22 8 -38 M134 116 q2 -18 -6 -30" fill="none" stroke="#15803d" stroke-width="3" stroke-linecap="round" stroke-linejoin="round" /><path d="M144 116 q-4 -22 -8 -38 M150 116 q2 -18 8 -30" fill="none" stroke="#15803d" stroke-width="3" stroke-linecap="round" stroke-linejoin="round" /><line x1="36" y1="118" x2="164" y2="118" stroke="#15803d" stroke-width="3" stroke-linecap="round" /></svg>