<svg xmlns="http://www.w3.org/2000/svg" viewBox="0 0 200 150"><rect width="200" height="150" fill="#faf8f4"/><circle cx="76" cy="54.6" r="6.3" fill="none" stroke="#2c2825" stroke-width="3" /><path d="M66.2 85.4 v-18 a9.799999999999999 9.799999999999999 0 0 1 28 0 v18" fill="none" stroke="#2c2825" stroke-width="3" stroke-linecap="round" stroke-linejoin="round" /><circle cx="108" cy="48.6" r="6.3" fill="none" stroke="#2c2825" stroke-width="3" /><path d="M98.2 79.4 v-18 a9.799999999999999 9.799999999999999 0 0 1 28 0 v18" fill="none" stroke="#2c2825" stroke-width="3" stroke-linecap="round" stroke-linejoin="round" /><circle cx="92" cy="80.6" r="6.3" fill="none" stroke="#2c2825" stroke-width="3" /><path d="M82.2 111.4 v-18 a9.799999999999999 9.799999999999999 0 0 1 28 0 v18" fill="none" stroke="#2c2825" stroke-width="3" stroke-linecap="round" stroke-linejoin="round" /><circle cx="124" cy="76.6" r="6.3" fill="none" stroke="#2c2825" stroke-width="3" /><path d="M114.2 107.4 v-18 a9.799999999999999 9.799999999999999 0 0 1 28 0 v18" fill="none" stroke="#2c2825" stroke-width="3" stroke-linecap="round" stroke-linejoin="round" /><circle cx="100" cy="80" r="52" fill="none" stroke="#c9c2b6" stroke-width="2.5" stroke-dasharray="6 6"/></svg>