<svg xmlns="http://www.w3.org/2000/svg" viewBox="0 0 200 150"><rect width="200" height="150" fill="#faf8f4"/><g transform="translate(100,60) scale(1.1)"><path d="M-8 -10 Q-8 -20 0 -20 Q9 -20 9 -11 Q9 -4 0 -2 L0 4" fill="none" stroke="#b45309" stroke-width="4" stroke-linecap="round" stroke-linejoin="round" /><circle cx="0" cy="12" r="2.8" fill="#b45309" /></g><g><circle cx="64" cy="104" r="11" fill="none" stroke="#2c2825" stroke-width="3" /><line x1="75" y1="104" x2="82" y2="104" stroke="#2c2825" stroke-width="4" stroke-linecap="round" /><line x1="71.77817459305203" y1="111.77817459305203" x2="76.72792206135786" y2="116.72792206135786" stroke="#2c2825" stroke-width="4" stroke-linecap="round" /><line x1="64" y1="115" x2="64" y2="122" stroke="#2c2825" stroke-width="4" stroke-linecap="round" /><line x1="56.22182540694798" y1="111.77817459305203" x2="51.27207793864214" y2="116.72792206135786" stroke="#2c2825" stroke-width="4" stroke-linecap="round" /><line x1="53" y1="104" x2="46" y2="104" stroke="#2c2825" stroke-width="4" stroke-linecap="round" /><line x1="56.22182540694798" y1="96.22182540694797" x2="51.27207793864214" y2="91.27207793864214" stroke="#2c2825" stroke-width="4" stroke-linecap="round" /><line x1="64" y1="93" x2="64" y2="86" stroke="#2c2825" stroke-width="4" stroke-linecap="round" /><line x1="71.77817459305201" y1="96.22182540694797" x2="76.72792206135784" y2="91.27207793864214" stroke="#2c2825" stroke-width="4" stroke-linecap="round" /><circle cx="64" cy="104" r="6" fill="none" stroke="#2c2825" stroke-width="3" /><animateTransform attributeName="transform" type="rotate" from="0 64 104" to="360 64 104" dur="3s" repeatCount="indefinite"/></g><line x1="84" y1="104" x2="116" y2="104" stroke="#b45309" stroke-width="3" stroke-linecap="round" /><path d="M106.99552897647322 108.3496553411123 L116 104 L106.99552897647322 99.6503446588877" fill="none" stroke="#b45309" stroke-width="3" stroke-linecap="round" stroke-linejoin="round" /><circle cx="132" cy="104" r="9" fill="#15803d" /></svg>