<svg xmlns="http://www.w3.org/2000/svg" viewBox="0 0 200 150"><rect width="200" height="150" fill="#faf8f4"/><circle cx="100" cy="62" r="24" fill="#fdf3c0" stroke="#b45309" stroke-width="3" /><path d="M90 84 H110 V94 H90 Z M94 94 v8 h12 v-8" fill="none" stroke="#b45309" stroke-width="2.5" stroke-linecap="round" stroke-linejoin="round" /><g ><line x1="70" y1="61.99999999999999" x2="60" y2="61.99999999999999" stroke="#b45309" stroke-width="2.5" stroke-linecap="round" /><animate attributeName="opacity" values="0.3;1;0.3" dur="1.4s" repeatCount="indefinite"/></g><g ><line x1="78.78679656440357" y1="40.78679656440357" x2="71.7157287525381" y2="33.7157287525381" stroke="#b45309" stroke-width="2.5" stroke-linecap="round" /><animate attributeName="opacity" values="0.3;1;0.3" dur="1.4s" repeatCount="indefinite"/></g><g ><line x1="100" y1="32" x2="100" y2="22" stroke="#b45309" stroke-width="2.5" stroke-linecap="round" /><animate attributeName="opacity" values="0.3;1;0.3" dur="1.4s" repeatCount="indefinite"/></g><g ><line x1="121.21320343559643" y1="40.78679656440357" x2="128.2842712474619" y2="33.7157287525381" stroke="#b45309" stroke-width="2.5" stroke-linecap="round" /><animate attributeName="opacity" values="0.3;1;0.3" dur="1.4s" repeatCount="indefinite"/></g><g ><line x1="130" y1="62" x2="140" y2="62" stroke="#b45309" stroke-width="2.5" stroke-linecap="round" /><animate attributeName="opacity" values="0.3;1;0.3" dur="1.4s" repeatCount="indefinite"/></g><g><circle cx="146" cy="104" r="9" fill="none" stroke="#2c2825" stroke-width="3" /><line x1="155" y1="104" x2="162" y2="104" stroke="#2c2825" stroke-width="4" stroke-linecap="round" /><line x1="152.36396103067892" y1="110.36396103067892" x2="157.31370849898477" y2="115.31370849898477" stroke="#2c2825" stroke-width="4" stroke-linecap="round" /><line x1="146" y1="113" x2="146" y2="120" stroke="#2c2825" stroke-width="4" stroke-linecap="round" /><line x1="139.63603896932108" y1="110.36396103067892" x2="134.68629150101523" y2="115.31370849898477" stroke="#2c2825" stroke-width="4" stroke-linecap="round" /><line x1="137" y1="104" x2="130" y2="104" stroke="#2c2825" stroke-width="4" stroke-linecap="round" /><line x1="139.63603896932108" y1="97.63603896932108" x2="134.68629150101523" y2="92.68629150101523" stroke="#2c2825" stroke-width="4" stroke-linecap="round" /><line x1="146" y1="95" x2="146" y2="88" stroke="#2c2825" stroke-width="4" stroke-linecap="round" /><line x1="152.36396103067892" y1="97.63603896932108" x2="157.31370849898477" y2="92.68629150101523" stroke="#2c2825" stroke-width="4" stroke-linecap="round" /><circle cx="146" cy="104" r="6" fill="none" stroke="#2c2825" stroke-width="3" /><animateTransform attributeName="transform" type="rotate" from="0 146 104" to="360 146 104" dur="3s" repeatCount="indefinite"/></g></svg>