<svg xmlns="http://www.w3.org/2000/svg" viewBox="0 0 200 150"><rect width="200" height="150" fill="#faf8f4"/><circle cx="68" cy="72" r="26" fill="#fdf3d8" stroke="#2c2825" stroke-width="3" /><line x1="48" y1="64" x2="60" y2="64" stroke="#2c2825" stroke-width="3" stroke-linecap="round" /><line x1="76" y1="64" x2="88" y2="64" stroke="#2c2825" stroke-width="3" stroke-linecap="round" /><line x1="62" y1="88" x2="74" y2="88" stroke="#2c2825" stroke-width="3" stroke-linecap="round" /><circle cx="132" cy="72" r="26" fill="#fdf3d8" stroke="#2c2825" stroke-width="3" /><line x1="112" y1="64" x2="124" y2="64" stroke="#2c2825" stroke-width="3" stroke-linecap="round" /><line x1="140" y1="64" x2="152" y2="64" stroke="#2c2825" stroke-width="3" stroke-linecap="round" /><line x1="126" y1="88" x2="138" y2="88" stroke="#2c2825" stroke-width="3" stroke-linecap="round" /><g ><path transform="translate(100,30) scale(0.7)" d="M0 6 C-2 -2 -14 -2 -14 7 C-14 15 -4 21 0 25 C4 21 14 15 14 7 C14 -2 2 -2 0 6 Z" fill="#be123c"/><animate attributeName="opacity" values="0.4;1;0.4" dur="1.4s" repeatCount="indefinite"/></g></svg>