<svg xmlns="http://www.w3.org/2000/svg" viewBox="0 0 200 150"><rect width="200" height="150" fill="#faf8f4"/><path transform="translate(78,56) scale(1)" d="M0 6 C-2 -2 -14 -2 -14 7 C-14 15 -4 21 0 25 C4 21 14 15 14 7 C14 -2 2 -2 0 6 Z" fill="#be123c"/><circle cx="132" cy="70" r="16" fill="#ece6da" stroke="#2c2825" stroke-width="2.5" /><path d="M118 70 q-8 -2 -8 -10 q0 -8 8 -8 q2 -8 12 -8 q10 0 12 8 q8 0 8 8 q0 8 -8 10" fill="none" stroke="none" stroke-width="1" stroke-linecap="round" stroke-linejoin="round" /><line x1="96" y1="72" x2="114" y2="72" stroke="#b45309" stroke-width="3" stroke-linecap="round" /><path d="M104.99552897647322 76.3496553411123 L114 72 L104.99552897647322 67.6503446588877" fill="none" stroke="#b45309" stroke-width="3" stroke-linecap="round" stroke-linejoin="round" /><line x1="116" y1="92" x2="98" y2="88" stroke="#b45309" stroke-width="3" stroke-linecap="round" /><path d="M107.73362082146905 85.70726676129463 L98 88 L105.84647537246732 94.19942128180233" fill="none" stroke="#b45309" stroke-width="3" stroke-linecap="round" stroke-linejoin="round" /></svg>