<svg xmlns="http://www.w3.org/2000/svg" viewBox="0 0 200 150"><rect width="200" height="150" fill="#faf8f4"/><path d="M56 46 H144 V104 H56 Z" fill="#f2ead8" stroke="#b45309" stroke-width="3" stroke-linecap="round" stroke-linejoin="round" /><line x1="70" y1="48" x2="70" y2="102" stroke="#d9cdb2" stroke-width="1.5" stroke-linecap="round" /><line x1="84" y1="48" x2="84" y2="102" stroke="#d9cdb2" stroke-width="1.5" stroke-linecap="round" /><line x1="98" y1="48" x2="98" y2="102" stroke="#d9cdb2" stroke-width="1.5" stroke-linecap="round" /><line x1="112" y1="48" x2="112" y2="102" stroke="#d9cdb2" stroke-width="1.5" stroke-linecap="round" /><line x1="126" y1="48" x2="126" y2="102" stroke="#d9cdb2" stroke-width="1.5" stroke-linecap="round" /><line x1="58" y1="60" x2="142" y2="60" stroke="#d9cdb2" stroke-width="1.5" stroke-linecap="round" /><line x1="58" y1="74" x2="142" y2="74" stroke="#d9cdb2" stroke-width="1.5" stroke-linecap="round" /><line x1="58" y1="88" x2="142" y2="88" stroke="#d9cdb2" stroke-width="1.5" stroke-linecap="round" /><path d="M56 104 q10 8 18 0 q10 8 18 0 q10 8 18 0 q10 8 18 0 q10 8 16 0" fill="none" stroke="#b45309" stroke-width="2.5" stroke-linecap="round" stroke-linejoin="round" /></svg>