<svg xmlns="http://www.w3.org/2000/svg" viewBox="0 0 200 150"><rect width="200" height="150" fill="#faf8f4"/><g ><path d="M100 116 V70" fill="none" stroke="#15803d" stroke-width="4" stroke-linecap="round" stroke-linejoin="round" /><animate attributeName="opacity" values="0.7;1;0.7" dur="2s" repeatCount="indefinite"/></g><g ><path d="M100 88 Q76 84 70 58 Q96 60 100 82 M100 76 Q124 72 130 46 Q104 48 100 70" fill="#bfe3bf" stroke="#15803d" stroke-width="3" stroke-linecap="round" stroke-linejoin="round" /><animateTransform attributeName="transform" type="scale" values="1;1.06;1" dur="2s" repeatCount="indefinite" additive="sum" transform-origin="100 90"/></g><circle cx="50" cy="40" r="8" fill="#b45309" /><line x1="63" y1="40" x2="70" y2="40" stroke="#b45309" stroke-width="3" stroke-linecap="round" /><line x1="59.19238815542512" y1="49.19238815542512" x2="64.14213562373095" y2="54.14213562373095" stroke="#b45309" stroke-width="3" stroke-linecap="round" /><line x1="50" y1="53" x2="50" y2="60" stroke="#b45309" stroke-width="3" stroke-linecap="round" /><line x1="40.80761184457488" y1="49.19238815542512" x2="35.85786437626905" y2="54.14213562373095" stroke="#b45309" stroke-width="3" stroke-linecap="round" /><line x1="37" y1="40" x2="30" y2="40" stroke="#b45309" stroke-width="3" stroke-linecap="round" /><line x1="40.80761184457488" y1="30.807611844574883" x2="35.85786437626905" y2="25.85786437626905" stroke="#b45309" stroke-width="3" stroke-linecap="round" /><line x1="50" y1="27" x2="49.99999999999999" y2="20" stroke="#b45309" stroke-width="3" stroke-linecap="round" /><line x1="59.192388155425114" y1="30.80761184457488" x2="64.14213562373095" y2="25.857864376269045" stroke="#b45309" stroke-width="3" stroke-linecap="round" /><line x1="70" y1="116" x2="130" y2="116" stroke="#c9c2b6" stroke-width="3" stroke-linecap="round" /></svg>