<svg xmlns="http://www.w3.org/2000/svg" viewBox="0 0 200 150"><rect width="200" height="150" fill="#faf8f4"/><g><circle cx="78" cy="66" r="18" fill="none" stroke="#2c2825" stroke-width="3" /><line x1="96" y1="66" x2="103" y2="66" stroke="#2c2825" stroke-width="4" stroke-linecap="round" /><line x1="90.72792206135786" y1="78.72792206135786" x2="95.67766952966369" y2="83.67766952966369" stroke="#2c2825" stroke-width="4" stroke-linecap="round" /><line x1="78" y1="84" x2="78" y2="91" stroke="#2c2825" stroke-width="4" stroke-linecap="round" /><line x1="65.27207793864214" y1="78.72792206135786" x2="60.32233047033631" y2="83.67766952966369" stroke="#2c2825" stroke-width="4" stroke-linecap="round" /><line x1="60" y1="66" x2="53" y2="66" stroke="#2c2825" stroke-width="4" stroke-linecap="round" /><line x1="65.27207793864214" y1="53.27207793864214" x2="60.32233047033631" y2="48.32233047033631" stroke="#2c2825" stroke-width="4" stroke-linecap="round" /><line x1="78" y1="48" x2="78" y2="41" stroke="#2c2825" stroke-width="4" stroke-linecap="round" /><line x1="90.72792206135784" y1="53.27207793864214" x2="95.67766952966369" y2="48.32233047033631" stroke="#2c2825" stroke-width="4" stroke-linecap="round" /><circle cx="78" cy="66" r="6" fill="none" stroke="#2c2825" stroke-width="3" /><animateTransform attributeName="transform" type="rotate" from="0 78 66" to="360 78 66" dur="3.5s" repeatCount="indefinite"/></g><g><circle cx="116" cy="90" r="13" fill="none" stroke="#2c2825" stroke-width="3" /><line x1="129" y1="90" x2="136" y2="90" stroke="#2c2825" stroke-width="4" stroke-linecap="round" /><line x1="125.19238815542512" y1="99.19238815542512" x2="130.14213562373095" y2="104.14213562373095" stroke="#2c2825" stroke-width="4" stroke-linecap="round" /><line x1="116" y1="103" x2="116" y2="110" stroke="#2c2825" stroke-width="4" stroke-linecap="round" /><line x1="106.80761184457488" y1="99.19238815542512" x2="101.85786437626905" y2="104.14213562373095" stroke="#2c2825" stroke-width="4" stroke-linecap="round" /><line x1="103" y1="90" x2="96" y2="90" stroke="#2c2825" stroke-width="4" stroke-linecap="round" /><line x1="106.80761184457488" y1="80.80761184457488" x2="101.85786437626905" y2="75.85786437626905" stroke="#2c2825" stroke-width="4" stroke-linecap="round" /><line x1="116" y1="77" x2="116" y2="70" stroke="#2c2825" stroke-width="4" stroke-linecap="round" /><line x1="125.19238815542512" y1="80.80761184457488" x2="130.14213562373095" y2="75.85786437626905" stroke="#2c2825" stroke-width="4" stroke-linecap="round" /><circle cx="116" cy="90" r="6" fill="none" stroke="#2c2825" stroke-width="3" /><animateTransform attributeName="transform" type="rotate" from="0 116 90" to="360 116 90" dur="2.4s" repeatCount="indefinite"/></g><rect x="52" y="110" width="96" height="12" rx="3" fill="#ece6da" stroke="#2c2825" stroke-width="3" /><line x1="140" y1="56" x2="156" y2="56" stroke="#b45309" stroke-width="3" stroke-linecap="round" /><circle cx="160" cy="56" r="4" fill="#b45309" /></svg>