<svg xmlns="http://www.w3.org/2000/svg" viewBox="0 0 200 150"><rect width="200" height="150" fill="#faf8f4"/><circle cx="96" cy="72" r="34" fill="none" stroke="#2c2825" stroke-width="3" /><path d="M96 106 V116" fill="none" stroke="#2c2825" stroke-width="3" stroke-linecap="round" stroke-linejoin="round" /><g><circle cx="88" cy="66" r="11" fill="none" stroke="#2c2825" stroke-width="3" /><line x1="99" y1="66" x2="106" y2="66" stroke="#2c2825" stroke-width="4" stroke-linecap="round" /><line x1="95.77817459305203" y1="73.77817459305203" x2="100.72792206135786" y2="78.72792206135786" stroke="#2c2825" stroke-width="4" stroke-linecap="round" /><line x1="88" y1="77" x2="88" y2="84" stroke="#2c2825" stroke-width="4" stroke-linecap="round" /><line x1="80.22182540694797" y1="73.77817459305203" x2="75.27207793864214" y2="78.72792206135786" stroke="#2c2825" stroke-width="4" stroke-linecap="round" /><line x1="77" y1="66" x2="70" y2="66" stroke="#2c2825" stroke-width="4" stroke-linecap="round" /><line x1="80.22182540694797" y1="58.22182540694798" x2="75.27207793864214" y2="53.27207793864214" stroke="#2c2825" stroke-width="4" stroke-linecap="round" /><line x1="88" y1="55" x2="88" y2="48" stroke="#2c2825" stroke-width="4" stroke-linecap="round" /><line x1="95.77817459305201" y1="58.22182540694798" x2="100.72792206135784" y2="53.27207793864214" stroke="#2c2825" stroke-width="4" stroke-linecap="round" /><circle cx="88" cy="66" r="6" fill="none" stroke="#2c2825" stroke-width="3" /><animateTransform attributeName="transform" type="rotate" from="0 88 66" to="360 88 66" dur="4s" repeatCount="indefinite"/></g><g><circle cx="110" cy="84" r="8" fill="none" stroke="#2c2825" stroke-width="3" /><line x1="118" y1="84" x2="125" y2="84" stroke="#2c2825" stroke-width="4" stroke-linecap="round" /><line x1="115.65685424949238" y1="89.65685424949238" x2="120.60660171779821" y2="94.60660171779821" stroke="#2c2825" stroke-width="4" stroke-linecap="round" /><line x1="110" y1="92" x2="110" y2="99" stroke="#2c2825" stroke-width="4" stroke-linecap="round" /><line x1="104.34314575050762" y1="89.65685424949238" x2="99.39339828220179" y2="94.60660171779821" stroke="#2c2825" stroke-width="4" stroke-linecap="round" /><line x1="102" y1="84" x2="95" y2="84" stroke="#2c2825" stroke-width="4" stroke-linecap="round" /><line x1="104.34314575050762" y1="78.34314575050762" x2="99.39339828220179" y2="73.39339828220179" stroke="#2c2825" stroke-width="4" stroke-linecap="round" /><line x1="110" y1="76" x2="110" y2="69" stroke="#2c2825" stroke-width="4" stroke-linecap="round" /><line x1="115.65685424949238" y1="78.34314575050762" x2="120.60660171779821" y2="73.39339828220179" stroke="#2c2825" stroke-width="4" stroke-linecap="round" /><circle cx="110" cy="84" r="6" fill="none" stroke="#2c2825" stroke-width="3" /><animateTransform attributeName="transform" type="rotate" from="0 110 84" to="360 110 84" dur="3s" repeatCount="indefinite"/></g></svg>