<svg xmlns="http://www.w3.org/2000/svg" viewBox="0 0 200 150"><rect width="200" height="150" fill="#faf8f4"/><path d="M100 116 V72" fill="none" stroke="#15803d" stroke-width="4" stroke-linecap="round" stroke-linejoin="round" /><path d="M100 88 Q70 84 64 54 Q94 56 100 82 M100 76 Q130 72 136 42 Q106 44 100 70" fill="#cfe8cf" stroke="#15803d" stroke-width="3" stroke-linecap="round" stroke-linejoin="round" /><circle cx="48" cy="40" r="9" fill="#b45309" /><line x1="62" y1="40" x2="69" y2="40" stroke="#b45309" stroke-width="3" stroke-linecap="round" /><line x1="57.89949493661167" y1="49.89949493661166" x2="62.8492424049175" y2="54.8492424049175" stroke="#b45309" stroke-width="3" stroke-linecap="round" /><line x1="48" y1="54" x2="48" y2="61" stroke="#b45309" stroke-width="3" stroke-linecap="round" /><line x1="38.10050506338834" y1="49.89949493661167" x2="33.1507575950825" y2="54.8492424049175" stroke="#b45309" stroke-width="3" stroke-linecap="round" /><line x1="34" y1="40" x2="27" y2="40" stroke="#b45309" stroke-width="3" stroke-linecap="round" /><line x1="38.10050506338833" y1="30.100505063388336" x2="33.150757595082496" y2="25.150757595082503" stroke="#b45309" stroke-width="3" stroke-linecap="round" /><line x1="48" y1="26" x2="47.99999999999999" y2="19" stroke="#b45309" stroke-width="3" stroke-linecap="round" /><line x1="57.89949493661166" y1="30.100505063388333" x2="62.84924240491749" y2="25.1507575950825" stroke="#b45309" stroke-width="3" stroke-linecap="round" /></svg>