<svg xmlns="http://www.w3.org/2000/svg" viewBox="0 0 200 150"><rect width="200" height="150" fill="#faf8f4"/><g><circle cx="86" cy="70" r="17" fill="none" stroke="#2c2825" stroke-width="3" /><line x1="103" y1="70" x2="110" y2="70" stroke="#2c2825" stroke-width="4" stroke-linecap="round" /><line x1="98.0208152801713" y1="82.0208152801713" x2="102.97056274847714" y2="86.97056274847714" stroke="#2c2825" stroke-width="4" stroke-linecap="round" /><line x1="86" y1="87" x2="86" y2="94" stroke="#2c2825" stroke-width="4" stroke-linecap="round" /><line x1="73.9791847198287" y1="82.0208152801713" x2="69.02943725152286" y2="86.97056274847714" stroke="#2c2825" stroke-width="4" stroke-linecap="round" /><line x1="69" y1="70" x2="62" y2="70" stroke="#2c2825" stroke-width="4" stroke-linecap="round" /><line x1="73.9791847198287" y1="57.979184719828694" x2="69.02943725152286" y2="53.029437251522864" stroke="#2c2825" stroke-width="4" stroke-linecap="round" /><line x1="86" y1="53" x2="86" y2="46" stroke="#2c2825" stroke-width="4" stroke-linecap="round" /><line x1="98.0208152801713" y1="57.97918471982869" x2="102.97056274847714" y2="53.02943725152286" stroke="#2c2825" stroke-width="4" stroke-linecap="round" /><circle cx="86" cy="70" r="6" fill="none" stroke="#2c2825" stroke-width="3" /><animateTransform attributeName="transform" type="rotate" from="0 86 70" to="360 86 70" dur="3s" repeatCount="indefinite"/></g><line x1="50" y1="108" x2="80" y2="96" stroke="#b45309" stroke-width="3" stroke-linecap="round" /><path d="M73.2549799799466 103.38273018124588 L80 96 L70.02413710186073 95.3056229860312" fill="none" stroke="#b45309" stroke-width="3" stroke-linecap="round" stroke-linejoin="round" /><line x1="120" y1="96" x2="150" y2="108" stroke="#b45309" stroke-width="3" stroke-linecap="round" /><path d="M140.02413710186073 108.6943770139688 L150 108 L143.2549799799466 100.61726981875412" fill="none" stroke="#b45309" stroke-width="3" stroke-linecap="round" stroke-linejoin="round" /><rect x="120" y="52" width="34" height="24" rx="4" fill="#fff" stroke="#2c2825" stroke-width="2.5" /><path d="M131 64 L135.5 68.5 L143.5 59" fill="none" stroke="#15803d" stroke-width="2.25" stroke-linecap="round" stroke-linejoin="round" /></svg>