<svg xmlns="http://www.w3.org/2000/svg" viewBox="0 0 200 150"><rect width="200" height="150" fill="#faf8f4"/><path d="M48 36 h60 a8 8 0 0 1 8 8 v24 a8 8 0 0 1 -8 8 h-34 l12 12 v-12 h-10 a8 8 0 0 1 -8 -8 v-24 a8 8 0 0 1 8 -8 Z" fill="#fff" stroke="#2c2825" stroke-width="3" stroke-linecap="round" stroke-linejoin="round" /><path d="M70 56 l8 14 M86 70 l8 -22" fill="none" stroke="none" stroke-width="1" stroke-linecap="round" stroke-linejoin="round" /><path d="M70 70 l8 -10 l6 6 l10 -14" fill="none" stroke="#15803d" stroke-width="3" stroke-linecap="round" stroke-linejoin="round" /><path d="M108 70 h52 a8 8 0 0 1 8 8 v18 a8 8 0 0 1 -8 8 h34 l-12 12 v-12 h-8 a8 8 0 0 1 -8 -8 v-18 a8 8 0 0 1 8 -8 Z" fill="#fff" stroke="#2c2825" stroke-width="3" stroke-linecap="round" stroke-linejoin="round" /><path d="M128 92 l16 -12 M128 80 l16 12" fill="none" stroke="#be123c" stroke-width="3" stroke-linecap="round" stroke-linejoin="round" /></svg>