<svg xmlns="http://www.w3.org/2000/svg" viewBox="0 0 200 150"><rect width="200" height="150" fill="#faf8f4"/><path d="M86 64 Q66 64 66 82 Q66 100 88 100 L114 100 Q134 100 134 84 Q134 70 118 70 Q112 54 96 56 Q86 58 86 64 Z" fill="none" stroke="none" stroke-width="3" stroke-linecap="round" stroke-linejoin="round" /><path d="M70 90 Q100 60 142 64 Q128 70 124 78 Q140 78 148 72 Q142 92 116 94 Q88 96 70 90 Z" fill="#fff" stroke="#2c2825" stroke-width="2.5" stroke-linecap="round" stroke-linejoin="round" /><circle cx="140" cy="62" r="2" fill="#2c2825" /><path d="M96 96 q-2 10 -10 14" fill="none" stroke="#2c2825" stroke-width="2.5" stroke-linecap="round" stroke-linejoin="round" /><path d="M56 44 q14 4 18 14 M62 38 q4 8 12 10" fill="none" stroke="#15803d" stroke-width="2.5" stroke-linecap="round" stroke-linejoin="round" /></svg>