<svg xmlns="http://www.w3.org/2000/svg" viewBox="0 0 200 150"><rect width="200" height="150" fill="#faf8f4"/><circle cx="100" cy="72" r="36" fill="#fdf3d8" stroke="#2c2825" stroke-width="3" /><path d="M80 64 Q86 58 92 64" fill="none" stroke="#2c2825" stroke-width="3" stroke-linecap="round" stroke-linejoin="round" /><path d="M108 64 Q114 58 120 64" fill="none" stroke="#2c2825" stroke-width="3" stroke-linecap="round" stroke-linejoin="round" /><path d="M84 84 Q100 97 116 84" fill="none" stroke="#2c2825" stroke-width="3" stroke-linecap="round" stroke-linejoin="round" /><path transform="translate(146,32) scale(0.6)" d="M0 -12 L3.5 -3.5 L12 -3 L5.5 3 L7.5 12 L0 7 L-7.5 12 L-5.5 3 L-12 -3 L-3.5 -3.5 Z" fill="#b45309"/><path transform="translate(54,40) scale(0.45)" d="M0 -12 L3.5 -3.5 L12 -3 L5.5 3 L7.5 12 L0 7 L-7.5 12 L-5.5 3 L-12 -3 L-3.5 -3.5 Z" fill="#b45309"/></svg>