<svg xmlns="http://www.w3.org/2000/svg" viewBox="0 0 200 150"><rect width="200" height="150" fill="#faf8f4"/><rect x="48" y="56" width="44" height="40" rx="4" fill="#cfc8bb" stroke="#2c2825" stroke-width="3" /><g><circle cx="70" cy="76" r="9" fill="none" stroke="#2c2825" stroke-width="3" /><line x1="79" y1="76" x2="86" y2="76" stroke="#2c2825" stroke-width="4" stroke-linecap="round" /><line x1="76.36396103067892" y1="82.36396103067892" x2="81.31370849898477" y2="87.31370849898477" stroke="#2c2825" stroke-width="4" stroke-linecap="round" /><line x1="70" y1="85" x2="70" y2="92" stroke="#2c2825" stroke-width="4" stroke-linecap="round" /><line x1="63.63603896932107" y1="82.36396103067892" x2="58.68629150101524" y2="87.31370849898477" stroke="#2c2825" stroke-width="4" stroke-linecap="round" /><line x1="61" y1="76" x2="54" y2="76" stroke="#2c2825" stroke-width="4" stroke-linecap="round" /><line x1="63.63603896932107" y1="69.63603896932108" x2="58.68629150101523" y2="64.68629150101523" stroke="#2c2825" stroke-width="4" stroke-linecap="round" /><line x1="70" y1="67" x2="70" y2="60" stroke="#2c2825" stroke-width="4" stroke-linecap="round" /><line x1="76.36396103067892" y1="69.63603896932108" x2="81.31370849898475" y2="64.68629150101523" stroke="#2c2825" stroke-width="4" stroke-linecap="round" /><circle cx="70" cy="76" r="6" fill="none" stroke="#2c2825" stroke-width="3" /><animateTransform attributeName="transform" type="rotate" from="0 70 76" to="360 70 76" dur="3s" repeatCount="indefinite"/></g><line x1="96" y1="76" x2="124" y2="76" stroke="#b45309" stroke-width="4" stroke-linecap="round" /><path d="M114.99552897647322 80.3496553411123 L124 76 L114.99552897647322 71.6503446588877" fill="none" stroke="#b45309" stroke-width="4" stroke-linecap="round" stroke-linejoin="round" /><g ><rect x="130" y="60" width="32" height="32" rx="4" fill="#e8c969" stroke="#b45309" stroke-width="3" /><animateTransform attributeName="transform" type="translate" values="-8 0;6 0;-8 0" dur="1.8s" repeatCount="indefinite"/></g></svg>