<svg xmlns="http://www.w3.org/2000/svg" viewBox="0 0 200 150"><rect width="200" height="150" fill="#faf8f4"/><circle cx="55" cy="62.8" r="5.3999999999999995" fill="none" stroke="#2c2825" stroke-width="3" /><path d="M46.6 89.2 v-18 a8.4 8.4 0 0 1 28 0 v18" fill="none" stroke="#2c2825" stroke-width="3" stroke-linecap="round" stroke-linejoin="round" /><circle cx="85" cy="62.8" r="5.3999999999999995" fill="none" stroke="#b45309" stroke-width="3" /><path d="M76.6 89.2 v-18 a8.4 8.4 0 0 1 28 0 v18" fill="none" stroke="#b45309" stroke-width="3" stroke-linecap="round" stroke-linejoin="round" /><circle cx="115" cy="62.8" r="5.3999999999999995" fill="none" stroke="#2c2825" stroke-width="3" /><path d="M106.6 89.2 v-18 a8.4 8.4 0 0 1 28 0 v18" fill="none" stroke="#2c2825" stroke-width="3" stroke-linecap="round" stroke-linejoin="round" /><circle cx="145" cy="62.8" r="5.3999999999999995" fill="none" stroke="#b45309" stroke-width="3" /><path d="M136.6 89.2 v-18 a8.4 8.4 0 0 1 28 0 v18" fill="none" stroke="#b45309" stroke-width="3" stroke-linecap="round" stroke-linejoin="round" /><path d="M36 110 H164" fill="none" stroke="#c9c2b6" stroke-width="3" stroke-linecap="round" stroke-linejoin="round" /></svg>