<svg xmlns="http://www.w3.org/2000/svg" viewBox="0 0 200 150"><rect width="200" height="150" fill="#faf8f4"/><circle cx="100" cy="41.3" r="7.6499999999999995" fill="none" stroke="#b45309" stroke-width="3" /><path d="M88.1 78.7 v-18 a11.9 11.9 0 0 1 28 0 v18" fill="none" stroke="#b45309" stroke-width="3" stroke-linecap="round" stroke-linejoin="round" /><circle cx="58" cy="87.9" r="4.95" fill="none" stroke="#2c2825" stroke-width="3" /><path d="M50.3 112.1 v-18 a7.700000000000001 7.700000000000001 0 0 1 28 0 v18" fill="none" stroke="#2c2825" stroke-width="3" stroke-linecap="round" stroke-linejoin="round" /><circle cx="86" cy="93.9" r="4.95" fill="none" stroke="#2c2825" stroke-width="3" /><path d="M78.3 118.1 v-18 a7.700000000000001 7.700000000000001 0 0 1 28 0 v18" fill="none" stroke="#2c2825" stroke-width="3" stroke-linecap="round" stroke-linejoin="round" /><circle cx="114" cy="93.9" r="4.95" fill="none" stroke="#2c2825" stroke-width="3" /><path d="M106.3 118.1 v-18 a7.700000000000001 7.700000000000001 0 0 1 28 0 v18" fill="none" stroke="#2c2825" stroke-width="3" stroke-linecap="round" stroke-linejoin="round" /><circle cx="142" cy="87.9" r="4.95" fill="none" stroke="#2c2825" stroke-width="3" /><path d="M134.3 112.1 v-18 a7.700000000000001 7.700000000000001 0 0 1 28 0 v18" fill="none" stroke="#2c2825" stroke-width="3" stroke-linecap="round" stroke-linejoin="round" /><path d="M118 18 h44 a8 8 0 0 1 8 8 v12 a8 8 0 0 1 -8 8 h-18 l12 12 v-12 h-10 a8 8 0 0 1 -8 -8 v-12 a8 8 0 0 1 8 -8 Z" fill="#fff" stroke="#2c2825" stroke-width="3" stroke-linecap="round" stroke-linejoin="round" /></svg>