<svg xmlns="http://www.w3.org/2000/svg" viewBox="0 0 200 150"><rect width="200" height="150" fill="#faf8f4"/><path d="M52 40 h64 a8 8 0 0 1 8 8 v24 a8 8 0 0 1 -8 8 h-38 l12 12 v-12 h-10 a8 8 0 0 1 -8 -8 v-24 a8 8 0 0 1 8 -8 Z" fill="#fff" stroke="#2c2825" stroke-width="3" stroke-linecap="round" stroke-linejoin="round" /><g transform="translate(84,60) scale(0.55)"><path d="M-8 -10 Q-8 -20 0 -20 Q9 -20 9 -11 Q9 -4 0 -2 L0 4" fill="none" stroke="#2c2825" stroke-width="4" stroke-linecap="round" stroke-linejoin="round" /><circle cx="0" cy="12" r="2.8" fill="#2c2825" /></g><path d="M124 96 Q142 84 160 92" fill="none" stroke="#b45309" stroke-width="4" stroke-linecap="round" stroke-linejoin="round" /><path d="M124 96 q-2 8 6 10" fill="none" stroke="#b45309" stroke-width="3" stroke-linecap="round" stroke-linejoin="round" /></svg>