<svg xmlns="http://www.w3.org/2000/svg" viewBox="0 0 200 150"><rect width="200" height="150" fill="#faf8f4"/><path d="M76 40 H124 V64 Q124 88 100 88 Q76 88 76 64 Z" fill="#f2c233" stroke="#b45309" stroke-width="3" stroke-linecap="round" stroke-linejoin="round" /><path d="M76 48 H62 Q60 68 76 70 M124 48 H138 Q140 68 124 70" fill="none" stroke="#b45309" stroke-width="3" stroke-linecap="round" stroke-linejoin="round" /><rect x="90" y="96" width="20" height="10" rx="2" fill="#b45309" /><line x1="100" y1="88" x2="100" y2="96" stroke="#b45309" stroke-width="4" stroke-linecap="round" /><path transform="translate(100,60) scale(0.5)" d="M0 -12 L3.5 -3.5 L12 -3 L5.5 3 L7.5 12 L0 7 L-7.5 12 L-5.5 3 L-12 -3 L-3.5 -3.5 Z" fill="#fff"/></svg>