<svg xmlns="http://www.w3.org/2000/svg" viewBox="0 0 200 150"><rect width="200" height="150" fill="#faf8f4"/><circle cx="144" cy="67" r="4.5" fill="none" stroke="#2c2825" stroke-width="3" /><path d="M137 89 v-18 a7 7 0 0 1 28 0 v18" fill="none" stroke="#2c2825" stroke-width="3" stroke-linecap="round" stroke-linejoin="round" /><circle cx="122" cy="96.44486372867091" r="4.5" fill="none" stroke="#b45309" stroke-width="3" /><path d="M115 118.44486372867091 v-18 a7 7 0 0 1 28 0 v18" fill="none" stroke="#b45309" stroke-width="3" stroke-linecap="round" stroke-linejoin="round" /><circle cx="78.00000000000001" cy="96.44486372867092" r="4.5" fill="none" stroke="#2c2825" stroke-width="3" /><path d="M71.00000000000001 118.44486372867092 v-18 a7 7 0 0 1 28 0 v18" fill="none" stroke="#2c2825" stroke-width="3" stroke-linecap="round" stroke-linejoin="round" /><circle cx="56" cy="67" r="4.5" fill="none" stroke="#b45309" stroke-width="3" /><path d="M49 89 v-18 a7 7 0 0 1 28 0 v18" fill="none" stroke="#b45309" stroke-width="3" stroke-linecap="round" stroke-linejoin="round" /><circle cx="77.99999999999997" cy="37.55513627132909" r="4.5" fill="none" stroke="#2c2825" stroke-width="3" /><path d="M70.99999999999997 59.55513627132909 v-18 a7 7 0 0 1 28 0 v18" fill="none" stroke="#2c2825" stroke-width="3" stroke-linecap="round" stroke-linejoin="round" /><circle cx="122" cy="37.55513627132909" r="4.5" fill="none" stroke="#b45309" stroke-width="3" /><path d="M115 59.55513627132909 v-18 a7 7 0 0 1 28 0 v18" fill="none" stroke="#b45309" stroke-width="3" stroke-linecap="round" stroke-linejoin="round" /><circle cx="100" cy="78" r="12" fill="none" stroke="#c9c2b6" stroke-width="2.5" /></svg>