<svg xmlns="http://www.w3.org/2000/svg" viewBox="0 0 200 150"><rect width="200" height="150" fill="#faf8f4"/><g ><g transform="translate(72,84) scale(1)"><line x1="0" y1="0" x2="0" y2="-26" stroke="#b45309" stroke-width="3" stroke-linecap="round" /><circle cx="-5" cy="0" r="6" fill="#b45309" /><path d="M0 -26 Q10 -22 12 -14" fill="none" stroke="#b45309" stroke-width="3" stroke-linecap="round" stroke-linejoin="round" /></g><animateTransform attributeName="transform" type="translate" values="0 0;0 -8;0 0" dur="1.4s" repeatCount="indefinite"/></g><g ><g transform="translate(108,72) scale(0.8)"><line x1="0" y1="0" x2="0" y2="-26" stroke="#1d6fa5" stroke-width="3" stroke-linecap="round" /><circle cx="-5" cy="0" r="6" fill="#1d6fa5" /><path d="M0 -26 Q10 -22 12 -14" fill="none" stroke="#1d6fa5" stroke-width="3" stroke-linecap="round" stroke-linejoin="round" /></g><animateTransform attributeName="transform" type="translate" values="0 0;0 -12;0 0" dur="1.8s" repeatCount="indefinite"/></g><g ><g transform="translate(136,92) scale(0.7)"><line x1="0" y1="0" x2="0" y2="-26" stroke="#15803d" stroke-width="3" stroke-linecap="round" /><circle cx="-5" cy="0" r="6" fill="#15803d" /><path d="M0 -26 Q10 -22 12 -14" fill="none" stroke="#15803d" stroke-width="3" stroke-linecap="round" stroke-linejoin="round" /></g><animateTransform attributeName="transform" type="translate" values="0 0;0 -6;0 0" dur="1.1s" repeatCount="indefinite"/></g><path d="M52 112 q12 -4 24 0 t24 0 t24 0 t24 0" fill="none" stroke="#c9c2b6" stroke-width="2.5" stroke-linecap="round" stroke-linejoin="round" /></svg>