<svg xmlns="http://www.w3.org/2000/svg" viewBox="0 0 200 150"><rect width="200" height="150" fill="#faf8f4"/><path d="M48 40 h72 a8 8 0 0 1 8 8 v28 a8 8 0 0 1 -8 8 h-46 l12 12 v-12 h-10 a8 8 0 0 1 -8 -8 v-28 a8 8 0 0 1 8 -8 Z" fill="#fff" stroke="#2c2825" stroke-width="3" stroke-linecap="round" stroke-linejoin="round" /><line x1="62" y1="58" x2="108" y2="58" stroke="#c9c2b6" stroke-width="3" stroke-linecap="round" /><line x1="62" y1="70" x2="108" y2="70" stroke="#c9c2b6" stroke-width="3" stroke-linecap="round" /><line x1="62" y1="82" x2="90" y2="82" stroke="#c9c2b6" stroke-width="3" stroke-linecap="round" /><circle cx="146" cy="60" r="13" fill="#15803d" /><path d="M140 60 L144.5 64.5 L152.5 55" fill="none" stroke="#fff" stroke-width="2.25" stroke-linecap="round" stroke-linejoin="round" /></svg>