<svg xmlns="http://www.w3.org/2000/svg" viewBox="0 0 200 150"><rect width="200" height="150" fill="#faf8f4"/><g><circle cx="72" cy="60" r="14" fill="none" stroke="#2c2825" stroke-width="3" /><line x1="86" y1="60" x2="93" y2="60" stroke="#2c2825" stroke-width="4" stroke-linecap="round" /><line x1="81.89949493661166" y1="69.89949493661166" x2="86.8492424049175" y2="74.8492424049175" stroke="#2c2825" stroke-width="4" stroke-linecap="round" /><line x1="72" y1="74" x2="72" y2="81" stroke="#2c2825" stroke-width="4" stroke-linecap="round" /><line x1="62.10050506338834" y1="69.89949493661166" x2="57.1507575950825" y2="74.8492424049175" stroke="#2c2825" stroke-width="4" stroke-linecap="round" /><line x1="58" y1="60" x2="51" y2="60" stroke="#2c2825" stroke-width="4" stroke-linecap="round" /><line x1="62.10050506338833" y1="50.10050506338834" x2="57.150757595082496" y2="45.1507575950825" stroke="#2c2825" stroke-width="4" stroke-linecap="round" /><line x1="72" y1="46" x2="72" y2="39" stroke="#2c2825" stroke-width="4" stroke-linecap="round" /><line x1="81.89949493661166" y1="50.10050506338833" x2="86.84924240491749" y2="45.150757595082496" stroke="#2c2825" stroke-width="4" stroke-linecap="round" /><circle cx="72" cy="60" r="6" fill="none" stroke="#2c2825" stroke-width="3" /><animateTransform attributeName="transform" type="rotate" from="0 72 60" to="360 72 60" dur="3.5s" repeatCount="indefinite"/></g><g><circle cx="124" cy="56" r="10" fill="none" stroke="#2c2825" stroke-width="3" /><line x1="134" y1="56" x2="141" y2="56" stroke="#2c2825" stroke-width="4" stroke-linecap="round" /><line x1="131.07106781186548" y1="63.071067811865476" x2="136.02081528017132" y2="68.0208152801713" stroke="#2c2825" stroke-width="4" stroke-linecap="round" /><line x1="124" y1="66" x2="124" y2="73" stroke="#2c2825" stroke-width="4" stroke-linecap="round" /><line x1="116.92893218813452" y1="63.071067811865476" x2="111.9791847198287" y2="68.0208152801713" stroke="#2c2825" stroke-width="4" stroke-linecap="round" /><line x1="114" y1="56" x2="107" y2="56" stroke="#2c2825" stroke-width="4" stroke-linecap="round" /><line x1="116.92893218813452" y1="48.928932188134524" x2="111.9791847198287" y2="43.979184719828694" stroke="#2c2825" stroke-width="4" stroke-linecap="round" /><line x1="124" y1="46" x2="124" y2="39" stroke="#2c2825" stroke-width="4" stroke-linecap="round" /><line x1="131.07106781186548" y1="48.928932188134524" x2="136.0208152801713" y2="43.97918471982869" stroke="#2c2825" stroke-width="4" stroke-linecap="round" /><circle cx="124" cy="56" r="6" fill="none" stroke="#2c2825" stroke-width="3" /><animateTransform attributeName="transform" type="rotate" from="0 124 56" to="360 124 56" dur="2.5s" repeatCount="indefinite"/></g><g><circle cx="98" cy="100" r="12" fill="none" stroke="#2c2825" stroke-width="3" /><line x1="110" y1="100" x2="117" y2="100" stroke="#2c2825" stroke-width="4" stroke-linecap="round" /><line x1="106.48528137423857" y1="108.48528137423857" x2="111.4350288425444" y2="113.4350288425444" stroke="#2c2825" stroke-width="4" stroke-linecap="round" /><line x1="98" y1="112" x2="98" y2="119" stroke="#2c2825" stroke-width="4" stroke-linecap="round" /><line x1="89.51471862576143" y1="108.48528137423857" x2="84.5649711574556" y2="113.4350288425444" stroke="#2c2825" stroke-width="4" stroke-linecap="round" /><line x1="86" y1="100" x2="79" y2="100" stroke="#2c2825" stroke-width="4" stroke-linecap="round" /><line x1="89.51471862576143" y1="91.51471862576143" x2="84.56497115745559" y2="86.5649711574556" stroke="#2c2825" stroke-width="4" stroke-linecap="round" /><line x1="98" y1="88" x2="98" y2="81" stroke="#2c2825" stroke-width="4" stroke-linecap="round" /><line x1="106.48528137423857" y1="91.51471862576143" x2="111.4350288425444" y2="86.56497115745559" stroke="#2c2825" stroke-width="4" stroke-linecap="round" /><circle cx="98" cy="100" r="6" fill="none" stroke="#2c2825" stroke-width="3" /><animateTransform attributeName="transform" type="rotate" from="0 98 100" to="360 98 100" dur="3s" repeatCount="indefinite"/></g><line x1="86" y1="68" x2="92" y2="90" stroke="#c9c2b6" stroke-width="2.5" stroke-linecap="round" /><line x1="114" y1="62" x2="104" y2="90" stroke="#c9c2b6" stroke-width="2.5" stroke-linecap="round" /><line x1="86" y1="58" x2="112" y2="56" stroke="#c9c2b6" stroke-width="2.5" stroke-linecap="round" /></svg>