<svg xmlns="http://www.w3.org/2000/svg" viewBox="0 0 200 150"><rect width="200" height="150" fill="#faf8f4"/><circle cx="64" cy="46.4" r="7.2" fill="none" stroke="#2c2825" stroke-width="3" /><path d="M52.8 81.6 v-18 a11.200000000000001 11.200000000000001 0 0 1 28 0 v18" fill="none" stroke="#2c2825" stroke-width="3" stroke-linecap="round" stroke-linejoin="round" /><rect x="96" y="40" width="60" height="44" rx="3" fill="#3d4a3e" stroke="#2c2825" stroke-width="3" /><path d="M106 56 h40 M106 68 h28" fill="none" stroke="#fff" stroke-width="2.5" stroke-linecap="round" stroke-linejoin="round" /><path d="M80 70 L96 60" fill="none" stroke="#b45309" stroke-width="3" stroke-linecap="round" stroke-linejoin="round" /><circle cx="70" cy="100.1" r="4.05" fill="none" stroke="#2c2825" stroke-width="3" /><path d="M63.7 119.9 v-18 a6.3 6.3 0 0 1 28 0 v18" fill="none" stroke="#2c2825" stroke-width="3" stroke-linecap="round" stroke-linejoin="round" /><circle cx="98" cy="102.1" r="4.05" fill="none" stroke="#2c2825" stroke-width="3" /><path d="M91.7 121.9 v-18 a6.3 6.3 0 0 1 28 0 v18" fill="none" stroke="#2c2825" stroke-width="3" stroke-linecap="round" stroke-linejoin="round" /><circle cx="126" cy="100.1" r="4.05" fill="none" stroke="#2c2825" stroke-width="3" /><path d="M119.7 119.9 v-18 a6.3 6.3 0 0 1 28 0 v18" fill="none" stroke="#2c2825" stroke-width="3" stroke-linecap="round" stroke-linejoin="round" /></svg>