<svg xmlns="http://www.w3.org/2000/svg" viewBox="0 0 200 150"><rect width="200" height="150" fill="#faf8f4"/><path d="M70 96 Q56 84 64 68 Q52 60 64 48 Q60 34 78 36 Q84 24 98 32 Q112 24 118 36 Q136 34 132 50 Q144 60 132 70 Q140 84 124 92 Q120 104 104 100 Q92 110 82 100 Q72 104 70 96 Z" fill="#e8e2d6" stroke="#2c2825" stroke-width="2.5" stroke-linecap="round" stroke-linejoin="round" /><path d="M86 56 q14 18 -2 26 M112 54 q-12 16 4 26" fill="none" stroke="#be123c" stroke-width="3" stroke-linecap="round" stroke-linejoin="round" /><line x1="100" y1="36" x2="100" y2="24" stroke="#be123c" stroke-width="4" stroke-linecap="round" /></svg>