<svg xmlns="http://www.w3.org/2000/svg" viewBox="0 0 200 150"><rect width="200" height="150" fill="#faf8f4"/><g transform="translate(80,64) scale(1.2)"><path d="M-8 -10 Q-8 -20 0 -20 Q9 -20 9 -11 Q9 -4 0 -2 L0 4" fill="none" stroke="#b45309" stroke-width="4" stroke-linecap="round" stroke-linejoin="round" /><circle cx="0" cy="12" r="2.8" fill="#b45309" /></g><g><circle cx="136" cy="96" r="11" fill="none" stroke="#2c2825" stroke-width="3" /><line x1="147" y1="96" x2="154" y2="96" stroke="#2c2825" stroke-width="4" stroke-linecap="round" /><line x1="143.77817459305203" y1="103.77817459305203" x2="148.72792206135784" y2="108.72792206135786" stroke="#2c2825" stroke-width="4" stroke-linecap="round" /><line x1="136" y1="107" x2="136" y2="114" stroke="#2c2825" stroke-width="4" stroke-linecap="round" /><line x1="128.22182540694797" y1="103.77817459305203" x2="123.27207793864214" y2="108.72792206135786" stroke="#2c2825" stroke-width="4" stroke-linecap="round" /><line x1="125" y1="96" x2="118" y2="96" stroke="#2c2825" stroke-width="4" stroke-linecap="round" /><line x1="128.22182540694797" y1="88.22182540694797" x2="123.27207793864214" y2="83.27207793864214" stroke="#2c2825" stroke-width="4" stroke-linecap="round" /><line x1="136" y1="85" x2="136" y2="78" stroke="#2c2825" stroke-width="4" stroke-linecap="round" /><line x1="143.77817459305203" y1="88.22182540694797" x2="148.72792206135784" y2="83.27207793864214" stroke="#2c2825" stroke-width="4" stroke-linecap="round" /><circle cx="136" cy="96" r="6" fill="none" stroke="#2c2825" stroke-width="3" /><animateTransform attributeName="transform" type="rotate" from="0 136 96" to="360 136 96" dur="3.5s" repeatCount="indefinite"/></g><path d="M104 88 q12 6 20 4" fill="none" stroke="#c9c2b6" stroke-width="2.5" stroke-linecap="round" stroke-linejoin="round" stroke-dasharray="3 4" /></svg>